<mxfile host="app.diagrams.net" modified="2023-05-22T08:30:26.048Z" agent="Mozilla/5.0 (Windows NT 10.0; Win64; x64) AppleWebKit/537.36 (KHTML, like Gecko) Chrome/113.0.0.0 Safari/537.36" etag="X0AhYV7G0g6YXDn5zhKa" version="21.3.1" type="device">
  <diagram id="prtHgNgQTEPvFCAcTncT" name="Page-1">
    <mxGraphModel dx="1877" dy="573" grid="1" gridSize="10" guides="1" tooltips="1" connect="1" arrows="1" fold="1" page="1" pageScale="1" pageWidth="827" pageHeight="1169" math="0" shadow="0">
      <root>
        <mxCell id="0" />
        <mxCell id="1" parent="0" />
        <mxCell id="SbyHB9cEmRJJJoCMz8zF-1" value="" style="rounded=0;whiteSpace=wrap;html=1;" parent="1" vertex="1">
          <mxGeometry y="280" width="240" height="40" as="geometry" />
        </mxCell>
        <mxCell id="SbyHB9cEmRJJJoCMz8zF-2" value="" style="rounded=0;whiteSpace=wrap;html=1;" parent="1" vertex="1">
          <mxGeometry y="320" width="240" height="30" as="geometry" />
        </mxCell>
        <mxCell id="SbyHB9cEmRJJJoCMz8zF-3" value="&lt;font style=&quot;font-size: 17px;&quot;&gt;Charmander&lt;/font&gt;" style="text;html=1;strokeColor=none;fillColor=none;align=center;verticalAlign=middle;whiteSpace=wrap;rounded=0;" parent="1" vertex="1">
          <mxGeometry y="285" width="100" height="30" as="geometry" />
        </mxCell>
        <mxCell id="SbyHB9cEmRJJJoCMz8zF-4" value="" style="rounded=0;whiteSpace=wrap;html=1;" parent="1" vertex="1">
          <mxGeometry y="350" width="240" height="50" as="geometry" />
        </mxCell>
        <mxCell id="SbyHB9cEmRJJJoCMz8zF-5" value="Fields" style="text;html=1;strokeColor=none;fillColor=none;align=center;verticalAlign=middle;whiteSpace=wrap;rounded=0;" parent="1" vertex="1">
          <mxGeometry x="-10" y="320" width="60" height="30" as="geometry" />
        </mxCell>
        <mxCell id="SbyHB9cEmRJJJoCMz8zF-6" value="-String Type&lt;br&gt;-String Name&lt;br&gt;-String Weakness" style="text;html=1;strokeColor=none;fillColor=none;align=left;verticalAlign=middle;whiteSpace=wrap;rounded=0;" parent="1" vertex="1">
          <mxGeometry x="5" y="360" width="110" height="30" as="geometry" />
        </mxCell>
        <mxCell id="SbyHB9cEmRJJJoCMz8zF-8" value="" style="rounded=0;whiteSpace=wrap;html=1;" parent="1" vertex="1">
          <mxGeometry y="400" width="240" height="30" as="geometry" />
        </mxCell>
        <mxCell id="SbyHB9cEmRJJJoCMz8zF-9" value="Methods" style="text;html=1;strokeColor=none;fillColor=none;align=center;verticalAlign=middle;whiteSpace=wrap;rounded=0;" parent="1" vertex="1">
          <mxGeometry y="400" width="60" height="30" as="geometry" />
        </mxCell>
        <mxCell id="SbyHB9cEmRJJJoCMz8zF-10" value="" style="rounded=0;whiteSpace=wrap;html=1;" parent="1" vertex="1">
          <mxGeometry y="430" width="240" height="30" as="geometry" />
        </mxCell>
        <mxCell id="SbyHB9cEmRJJJoCMz8zF-11" value="&lt;div style=&quot;&quot;&gt;&lt;span style=&quot;background-color: initial;&quot;&gt;-battleCry()&lt;/span&gt;&lt;br&gt;&lt;/div&gt;" style="text;html=1;strokeColor=none;fillColor=none;align=left;verticalAlign=middle;whiteSpace=wrap;rounded=0;" parent="1" vertex="1">
          <mxGeometry y="430" width="110" height="30" as="geometry" />
        </mxCell>
        <mxCell id="A3pQhHkcFOYl_NKlipUs-1" value="" style="rounded=0;whiteSpace=wrap;html=1;" parent="1" vertex="1">
          <mxGeometry x="290" y="285" width="240" height="40" as="geometry" />
        </mxCell>
        <mxCell id="A3pQhHkcFOYl_NKlipUs-2" value="" style="rounded=0;whiteSpace=wrap;html=1;" parent="1" vertex="1">
          <mxGeometry x="290" y="325" width="240" height="30" as="geometry" />
        </mxCell>
        <mxCell id="A3pQhHkcFOYl_NKlipUs-3" value="&lt;span style=&quot;font-size: 17px;&quot;&gt;Pokeball&lt;/span&gt;" style="text;html=1;strokeColor=none;fillColor=none;align=center;verticalAlign=middle;whiteSpace=wrap;rounded=0;" parent="1" vertex="1">
          <mxGeometry x="280" y="290" width="100" height="30" as="geometry" />
        </mxCell>
        <mxCell id="A3pQhHkcFOYl_NKlipUs-4" value="" style="rounded=0;whiteSpace=wrap;html=1;" parent="1" vertex="1">
          <mxGeometry x="290" y="355" width="240" height="50" as="geometry" />
        </mxCell>
        <mxCell id="A3pQhHkcFOYl_NKlipUs-5" value="Fields" style="text;html=1;strokeColor=none;fillColor=none;align=center;verticalAlign=middle;whiteSpace=wrap;rounded=0;" parent="1" vertex="1">
          <mxGeometry x="290" y="325" width="60" height="30" as="geometry" />
        </mxCell>
        <mxCell id="A3pQhHkcFOYl_NKlipUs-6" value="-Class Charmander" style="text;html=1;strokeColor=none;fillColor=none;align=left;verticalAlign=middle;whiteSpace=wrap;rounded=0;" parent="1" vertex="1">
          <mxGeometry x="295" y="365" width="110" height="30" as="geometry" />
        </mxCell>
        <mxCell id="A3pQhHkcFOYl_NKlipUs-11" value="" style="rounded=0;whiteSpace=wrap;html=1;" parent="1" vertex="1">
          <mxGeometry x="570" y="290" width="240" height="40" as="geometry" />
        </mxCell>
        <mxCell id="A3pQhHkcFOYl_NKlipUs-12" value="" style="rounded=0;whiteSpace=wrap;html=1;" parent="1" vertex="1">
          <mxGeometry x="570" y="330" width="240" height="30" as="geometry" />
        </mxCell>
        <mxCell id="A3pQhHkcFOYl_NKlipUs-13" value="&lt;font style=&quot;font-size: 17px;&quot;&gt;Trainer&lt;/font&gt;" style="text;html=1;strokeColor=none;fillColor=none;align=center;verticalAlign=middle;whiteSpace=wrap;rounded=0;" parent="1" vertex="1">
          <mxGeometry x="560" y="295" width="100" height="30" as="geometry" />
        </mxCell>
        <mxCell id="A3pQhHkcFOYl_NKlipUs-14" value="" style="rounded=0;whiteSpace=wrap;html=1;" parent="1" vertex="1">
          <mxGeometry x="570" y="360" width="240" height="50" as="geometry" />
        </mxCell>
        <mxCell id="A3pQhHkcFOYl_NKlipUs-15" value="Fields" style="text;html=1;strokeColor=none;fillColor=none;align=center;verticalAlign=middle;whiteSpace=wrap;rounded=0;" parent="1" vertex="1">
          <mxGeometry x="570" y="330" width="60" height="30" as="geometry" />
        </mxCell>
        <mxCell id="A3pQhHkcFOYl_NKlipUs-16" value="-String Name&lt;br&gt;-Class List belt &amp;lt;Pokeballs&amp;gt;" style="text;html=1;strokeColor=none;fillColor=none;align=left;verticalAlign=middle;whiteSpace=wrap;rounded=0;" parent="1" vertex="1">
          <mxGeometry x="575" y="370" width="175" height="30" as="geometry" />
        </mxCell>
        <mxCell id="A3pQhHkcFOYl_NKlipUs-21" value="" style="rounded=0;whiteSpace=wrap;html=1;" parent="1" vertex="1">
          <mxGeometry x="290" y="40" width="240" height="40" as="geometry" />
        </mxCell>
        <mxCell id="A3pQhHkcFOYl_NKlipUs-22" value="" style="rounded=0;whiteSpace=wrap;html=1;" parent="1" vertex="1">
          <mxGeometry x="290" y="80" width="240" height="30" as="geometry" />
        </mxCell>
        <mxCell id="A3pQhHkcFOYl_NKlipUs-23" value="&lt;font style=&quot;font-size: 17px;&quot;&gt;Main&lt;/font&gt;" style="text;html=1;strokeColor=none;fillColor=none;align=center;verticalAlign=middle;whiteSpace=wrap;rounded=0;" parent="1" vertex="1">
          <mxGeometry x="290" y="40" width="100" height="30" as="geometry" />
        </mxCell>
        <mxCell id="A3pQhHkcFOYl_NKlipUs-24" value="" style="rounded=0;whiteSpace=wrap;html=1;" parent="1" vertex="1">
          <mxGeometry x="290" y="110" width="240" height="50" as="geometry" />
        </mxCell>
        <mxCell id="A3pQhHkcFOYl_NKlipUs-25" value="Fields" style="text;html=1;strokeColor=none;fillColor=none;align=center;verticalAlign=middle;whiteSpace=wrap;rounded=0;" parent="1" vertex="1">
          <mxGeometry x="280" y="80" width="60" height="30" as="geometry" />
        </mxCell>
        <mxCell id="A3pQhHkcFOYl_NKlipUs-26" value="-Class Trainer trainer1&lt;br&gt;-Class Trainer trainer2&lt;br&gt;-Class Charmander charmander" style="text;html=1;strokeColor=none;fillColor=none;align=left;verticalAlign=middle;whiteSpace=wrap;rounded=0;" parent="1" vertex="1">
          <mxGeometry x="290" y="120" width="225" height="30" as="geometry" />
        </mxCell>
        <mxCell id="eDKz9IhrynwKMTnYancr-6" value="" style="endArrow=diamondThin;endFill=1;endSize=24;html=1;rounded=0;" edge="1" parent="1">
          <mxGeometry width="160" relative="1" as="geometry">
            <mxPoint x="530" y="345" as="sourcePoint" />
            <mxPoint x="575" y="344.5" as="targetPoint" />
          </mxGeometry>
        </mxCell>
        <mxCell id="eDKz9IhrynwKMTnYancr-8" value="" style="endArrow=diamondThin;endFill=1;endSize=24;html=1;rounded=0;exitX=1;exitY=0.25;exitDx=0;exitDy=0;" edge="1" parent="1" source="SbyHB9cEmRJJJoCMz8zF-1">
          <mxGeometry width="160" relative="1" as="geometry">
            <mxPoint x="250" y="296" as="sourcePoint" />
            <mxPoint x="295" y="295" as="targetPoint" />
          </mxGeometry>
        </mxCell>
      </root>
    </mxGraphModel>
  </diagram>
</mxfile>
